<?xml version="1.0" encoding="UTF-8"?>
<!-- Generator: Adobe Illustrator 24.0.3, SVG Export Plug-In . SVG Version: 6.00 Build 0)  -->
<svg version="1.1" id="Capa_1" xmlns="http://www.w3.org/2000/svg" xmlns:xlink="http://www.w3.org/1999/xlink" x="0px" y="0px" viewBox="0 0 300.3 288" style="enable-background:new 0 0 300.3 288;" xml:space="preserve">
<style type="text/css">
	.st0{fill:#0863AE;}
	.st1{fill:#E73439;}
	.st2{fill:#868686;}
</style>
<g>
	<rect class="st0" width="121.8" height="23.9"/>
	<rect x="121.8" class="st1" width="175.6" height="23.9"/>
</g>
<g>
	<path class="st2" d="M31.4,113.4l-0.7-29.9h-0.2c-0.6,3.8-1.3,6.5-1.7,8.5l-5,21.3H13.6L8.8,92.1c-0.5-2-1.1-4.8-1.8-8.5H6.8   l-0.5,29.9H0.1l1.4-35.4h11.8c0,0,3.9,17.8,5.9,29.2h0.2c2.4-11.4,7-29.2,7-29.2H38l1.4,35.4h-8V113.4z"/>
	<path class="st2" d="M47.2,113.4V92.7l-3-0.6v-4.3H54v25.7L47.2,113.4L47.2,113.4z M47,77.3h6.9v6.2H47V77.3z"/>
	<path class="st2" d="M76.2,113.4V98.2c0-3.9-1.5-5.7-4.6-5.7c-1.8,0-3.3,0.8-4.5,1.6v19.4h-6.9V87.8h4.7l1,2.9   c1.5-1.7,4.3-3.5,8.1-3.5c6.5,0,9.1,3.8,9.1,10.3v15.9C83.1,113.4,76.2,113.4,76.2,113.4z"/>
	<path class="st2" d="M90.8,113.4V92.7l-3-0.6v-4.3h9.8v25.7L90.8,113.4L90.8,113.4z M90.6,77.3h6.9v6.2h-6.9V77.3z"/>
	<path class="st2" d="M109.8,94.5c0,4,11.1,2.8,11.1,11.2c0,4.7-3.5,8.3-10.1,8.3c-3.1,0-6-0.9-7.7-1.9l1.4-4.8   c1.2,0.8,3.7,1.8,6.1,1.8c2.3,0,3.8-1.3,3.8-2.8c0-4.6-10.9-3.1-10.9-11.8c0-3.8,2.9-7.2,9.8-7.2c2.7,0,5.4,0.5,7.2,1.3l-0.9,5   c-1.7-0.8-3.9-1.3-6.2-1.3C111,92.2,109.8,93.1,109.8,94.5z"/>
	<path class="st2" d="M135.8,114c-4.6,0-7.5-2.1-7.5-8.6V92.6h-3.8v-4.9h3.8v-4.5l6.8-2.2v6.7h6.9v4.9h-7v12.6   c0,1.8,0.9,2.9,2.7,2.9c1.4,0,2.9-0.4,3.9-0.9l1,5C141.2,113.1,138.5,114,135.8,114z"/>
	<path class="st2" d="M151.7,102.4c0,4.1,2.3,6.3,6.6,6.3c2.6,0,5.3-1,7.5-2.1l1.3,4.8c-2.1,1.2-5.7,2.5-9.7,2.5   c-7.9,0-12.6-4.9-12.6-13.4c0-7.9,3.8-13.3,12-13.3c7.8,0,10.8,5.8,10.8,12.2v3H151.7z M156.5,92.3c-3.4,0-4.8,3.1-4.8,6.1h9.4   C161,95.1,160,92.3,156.5,92.3z"/>
	<path class="st2" d="M187.4,93.5c-0.8-0.3-2-0.4-3.2-0.4c-1.8,0-3.5,0.8-4.6,1.7v18.6h-6.8V87.8h4.8l0.7,3.5h0.2   c0.8-1.8,3.1-3.9,6.1-3.9c1.4,0,2.4,0.2,3,0.4L187.4,93.5z"/>
	<path class="st2" d="M193.6,113.4V92.7l-3-0.6v-4.3h9.8v25.7L193.6,113.4L193.6,113.4z M193.4,77.3h6.9v6.2h-6.9V77.3z"/>
	<path class="st2" d="M229.7,100.6c0,8.7-4.4,13.4-12,13.4c-7.7,0-12-4.6-12-13.4c0-7.5,4.2-13.3,12-13.3   C225.4,87.2,229.7,93,229.7,100.6z M222.7,100.6c0-6.2-1.8-8.3-5-8.3s-5,2.2-5,8.3c0,6,1.6,8.4,5,8.4   C221,108.9,222.7,106.7,222.7,100.6z"/>
	<path class="st2" d="M263,89.8c-0.4-1.5-0.6-2.8-0.6-4.7v-7.8h6.8v36.1h-5.6l-0.8-2.8c-1,1.6-3.5,3.4-6.8,3.4   c-5.8,0-10.5-4.2-10.5-13.4c0-8.5,4.8-13.4,11.1-13.4C259.4,87.2,261.6,88.2,263,89.8z M262.3,93.6c-1-0.6-2.7-1.3-4.7-1.3   c-3.2,0-5.3,2.2-5.3,8.2c0,6.1,1.9,8.4,5.2,8.4c1.7,0,3.5-0.8,4.8-2.2L262.3,93.6L262.3,93.6z"/>
	<path class="st2" d="M281.2,102.4c0,4.1,2.3,6.3,6.6,6.3c2.6,0,5.3-1,7.5-2.1l1.3,4.8c-2.1,1.2-5.7,2.5-9.7,2.5   c-7.9,0-12.6-4.9-12.6-13.4c0-7.9,3.8-13.3,12-13.3c7.8,0,10.8,5.8,10.8,12.2v3H281.2z M286,92.3c-3.4,0-4.8,3.1-4.8,6.1h9.4   C290.6,95.1,289.6,92.3,286,92.3z"/>
	<path class="st2" d="M0.4,160v-29.3h6.8v29c0,2.1,1.3,2.5,4.1,2.5v4.8c0,0-2,0.4-3.8,0.4C2.3,167.4,0.4,164.6,0.4,160z"/>
	<path class="st2" d="M31.6,166.8l-0.9-3c-1.3,1.8-3.9,3.6-7.5,3.6c-5.1,0-8.6-3.3-8.6-8.2c0-4.8,3.5-7.6,9.7-7.6h5.4v-1.3   c0-3.3-1.9-4.3-4.5-4.3c-3,0-5.6,0.8-7.7,1.7l-1.7-4.9c2.6-1.1,6.1-2.1,10.1-2.1c7.3,0,10.4,3.4,10.4,9.9v16.3L31.6,166.8   L31.6,166.8z M29.7,155.6h-4.2c-2.8,0-4.1,1.4-4.1,3.3c0,2.4,1.3,3.8,3.8,3.8c1.6,0,3.3-0.7,4.6-1.7L29.7,155.6L29.7,155.6z"/>
	<path class="st2" d="M48.1,147.9c0,4,11.1,2.8,11.1,11.2c0,4.7-3.5,8.3-10.1,8.3c-3.1,0-6-0.9-7.7-1.9l1.4-4.8   c1.2,0.8,3.7,1.8,6.1,1.8c2.3,0,3.8-1.3,3.8-2.8c0-4.6-10.9-3.1-10.9-11.8c0-3.8,2.9-7.2,9.8-7.2c2.7,0,5.4,0.5,7.2,1.3l-0.9,5   c-1.7-0.8-3.9-1.3-6.2-1.3C49.3,145.6,48.1,146.5,48.1,147.9z"/>
	<path class="st2" d="M90.7,167.4c-10,0-15.3-6.6-15.3-18.4c0-11,5.3-18,15.3-18c4.8,0,9.2,1,12,3l-2.6,5.6c-1.8-1.4-5-2.5-8.7-2.5   c-5.9,0-8.8,4.1-8.8,11.9c0,8.2,2.9,12.4,8.7,12.4c3.5,0,6.9-1.5,9.3-3.2l2.2,5.6C99.3,166,95.3,167.4,90.7,167.4z"/>
	<path class="st2" d="M124.6,166.8l-1-3.1c-1.2,1.6-3.9,3.7-8,3.7c-6.4,0-9.3-3.6-9.3-10.6v-15.6h6.8v15.6c0,3.9,1.4,5.3,4.5,5.3   c1.8,0,3.4-0.7,4.6-1.5v-19.4h7v25.7L124.6,166.8L124.6,166.8z"/>
	<path class="st2" d="M134.9,160v-29.3h6.8v29c0,2.1,1.3,2.5,4.1,2.5v4.8c0,0-2,0.4-3.8,0.4C136.8,167.4,134.9,164.6,134.9,160z"/>
	<path class="st2" d="M159.7,167.4c-4.6,0-7.5-2.1-7.5-8.6V146h-3.8v-4.9h3.8v-4.5l6.8-2.2v6.7h6.9v4.9H159v12.6   c0,1.8,0.9,2.9,2.7,2.9c1.4,0,2.9-0.4,3.9-0.9l1,5C165.1,166.5,162.5,167.4,159.7,167.4z"/>
	<path class="st2" d="M189,166.8l-1-3.1c-1.2,1.6-3.9,3.7-8,3.7c-6.4,0-9.3-3.6-9.3-10.6v-15.6h6.8v15.6c0,3.9,1.4,5.3,4.5,5.3   c1.8,0,3.4-0.7,4.6-1.5v-19.4h7v25.7L189,166.8L189,166.8z"/>
	<path class="st2" d="M213.7,146.9c-0.8-0.3-2-0.4-3.2-0.4c-1.8,0-3.5,0.8-4.6,1.7v18.6h-6.8v-25.7h4.8l0.7,3.5h0.2   c0.8-1.8,3.1-3.9,6.1-3.9c1.4,0,2.4,0.2,3,0.4L213.7,146.9z"/>
	<path class="st2" d="M233.2,166.8l-0.9-3c-1.3,1.8-3.9,3.6-7.5,3.6c-5.1,0-8.6-3.3-8.6-8.2c0-4.8,3.5-7.6,9.7-7.6h5.4v-1.3   c0-3.3-1.9-4.3-4.5-4.3c-3,0-5.6,0.8-7.7,1.7l-1.7-4.9c2.6-1.1,6.1-2.1,10.1-2.1c7.3,0,10.4,3.4,10.4,9.9v16.3L233.2,166.8   L233.2,166.8z M231.2,155.6H227c-2.8,0-4.1,1.4-4.1,3.3c0,2.4,1.3,3.8,3.8,3.8c1.6,0,3.3-0.7,4.6-1.7v-5.4H231.2z"/>
	<path class="st2" d="M249.7,147.9c0,4,11.1,2.8,11.1,11.2c0,4.7-3.5,8.3-10.1,8.3c-3.1,0-6-0.9-7.7-1.9l1.4-4.8   c1.2,0.8,3.7,1.8,6.1,1.8c2.3,0,3.8-1.3,3.8-2.8c0-4.6-10.9-3.1-10.9-11.8c0-3.8,2.9-7.2,9.8-7.2c2.7,0,5.4,0.5,7.2,1.3l-0.9,5   c-1.7-0.8-3.9-1.3-6.2-1.3C250.9,145.6,249.7,146.5,249.7,147.9z"/>
	<path class="st2" d="M265.6,159.4h6.9v7.8c0,4.4-2.5,6.2-6.9,6.7v-3.6c0.9-0.2,1.6-1.1,1.6-3.6l-1.6-0.8V159.4z"/>
	<path class="st2" d="M0.4,213.4v-29.3h6.8v29c0,2.1,1.3,2.5,4.1,2.5v4.8c0,0-2,0.4-3.8,0.4C2.3,220.7,0.4,218,0.4,213.4z"/>
	<path class="st2" d="M31.6,220.2l-0.9-3c-1.3,1.8-3.9,3.6-7.5,3.6c-5.1,0-8.6-3.3-8.6-8.2c0-4.8,3.5-7.6,9.7-7.6h5.4v-1.3   c0-3.3-1.9-4.3-4.5-4.3c-3,0-5.6,0.8-7.7,1.7l-1.7-4.9c2.6-1.1,6.1-2.1,10.1-2.1c7.3,0,10.4,3.4,10.4,9.9v16.3L31.6,220.2   L31.6,220.2z M29.7,209h-4.2c-2.8,0-4.1,1.4-4.1,3.3c0,2.4,1.3,3.8,3.8,3.8c1.6,0,3.3-0.7,4.6-1.7L29.7,209L29.7,209z"/>
	<path class="st2" d="M48.1,201.3c0,4,11.1,2.8,11.1,11.2c0,4.7-3.5,8.3-10.1,8.3c-3.1,0-6-0.9-7.7-1.9l1.4-4.8   c1.2,0.8,3.7,1.8,6.1,1.8c2.3,0,3.8-1.3,3.8-2.8c0-4.6-10.9-3.1-10.9-11.8c0-3.8,2.9-7.2,9.8-7.2c2.7,0,5.4,0.5,7.2,1.3l-0.9,5   c-1.7-0.8-3.9-1.3-6.2-1.3C49.3,199,48.1,199.8,48.1,201.3z"/>
	<path class="st2" d="M80.5,220.2h-6.7l9.6-35.4h11.4l9.3,35.4h-7.7l-1.8-8H82.4L80.5,220.2z M87.5,190.9l-3.9,15.8h9.6l-3.6-15.8   H87.5z"/>
	<path class="st2" d="M122.4,200.3c-0.8-0.3-2-0.4-3.2-0.4c-1.8,0-3.5,0.8-4.6,1.7v18.6h-6.8v-25.7h4.8l0.7,3.5h0.2   c0.8-1.8,3.1-3.9,6.1-3.9c1.4,0,2.4,0.2,3,0.4L122.4,200.3z"/>
	<path class="st2" d="M136,220.7c-4.6,0-7.5-2.1-7.5-8.6v-12.7h-3.8v-4.9h3.8V190l6.8-2.2v6.7h6.9v4.9h-6.9V212   c0,1.8,0.9,2.9,2.7,2.9c1.4,0,2.9-0.4,3.9-0.9l1,5C141.4,219.9,138.7,220.7,136,220.7z"/>
	<path class="st2" d="M151.9,209.2c0,4.1,2.3,6.3,6.6,6.3c2.6,0,5.3-1,7.5-2.1l1.3,4.8c-2.1,1.2-5.7,2.5-9.7,2.5   c-7.9,0-12.6-4.9-12.6-13.4c0-7.9,3.8-13.3,12-13.3c7.8,0,10.8,5.8,10.8,12.2v3H151.9z M156.7,199.1c-3.4,0-4.8,3.1-4.8,6.1h9.4   C161.2,201.9,160.3,199.1,156.7,199.1z"/>
	<path class="st2" d="M179,201.3c0,4,11.1,2.8,11.1,11.2c0,4.7-3.5,8.3-10.1,8.3c-3.1,0-6-0.9-7.7-1.9l1.4-4.8   c1.2,0.8,3.7,1.8,6.1,1.8c2.3,0,3.8-1.3,3.8-2.8c0-4.6-10.9-3.1-10.9-11.8c0-3.8,2.9-7.2,9.8-7.2c2.7,0,5.4,0.5,7.2,1.3l-0.9,5   c-1.7-0.8-3.9-1.3-6.2-1.3C180.1,199,179,199.8,179,201.3z"/>
	<path class="st2" d="M216.8,219.6l-4.8,0.8l-7.6-25.9h7.7l5.4,21.5h0.1l5.5-21.5h6.8l-7.9,26.3c-2.2,7.4-5.9,10.1-11.2,10.1   c-2.9,0-6.1-1.6-7.2-2.6l2.1-4.7h0.6c0.2,0.2,2.4,1.8,4.8,1.8c2.7,0,4.5-1.9,5.4-5.2L216.8,219.6z"/>
	<path class="st2" d="M251,209.2c0,4.1,2.3,6.3,6.6,6.3c2.6,0,5.3-1,7.5-2.1l1.3,4.8c-2.1,1.2-5.7,2.5-9.7,2.5   c-7.9,0-12.6-4.9-12.6-13.4c0-7.9,3.8-13.3,12-13.3c7.8,0,10.8,5.8,10.8,12.2v3H251z M255.8,199.1c-3.4,0-4.8,3.1-4.8,6.1h9.4   C260.4,201.9,259.4,199.1,255.8,199.1z"/>
	<path class="st2" d="M272.2,213.4v-29.3h6.8v29c0,2.1,1.3,2.5,4.1,2.5v4.8c0,0-2,0.4-3.8,0.4C274.1,220.7,272.2,218,272.2,213.4z"/>
	<path class="st2" d="M11.3,261.3H7.4v12.3H0.5v-35.4h10.7c7.2,0,13.5,3.5,13.5,11.1C24.7,256.1,19.6,261.3,11.3,261.3z M11.1,244.1   H7.4v11.8h3.7c4,0,6.3-2.5,6.3-6.3C17.5,246,15,244.1,11.1,244.1z"/>
	<path class="st2" d="M43.3,273.6l-0.9-3c-1.3,1.8-3.9,3.6-7.5,3.6c-5.1,0-8.6-3.3-8.6-8.2c0-4.8,3.5-7.6,9.7-7.6h5.4V257   c0-3.3-1.9-4.3-4.5-4.3c-3,0-5.6,0.8-7.7,1.7l-1.7-4.9c2.6-1.1,6.1-2.1,10.1-2.1c7.3,0,10.4,3.4,10.4,9.9v16.3L43.3,273.6   L43.3,273.6z M41.4,262.4h-4.2c-2.8,0-4.1,1.4-4.1,3.3c0,2.4,1.3,3.8,3.8,3.8c1.6,0,3.3-0.7,4.6-1.7L41.4,262.4L41.4,262.4z"/>
	<path class="st2" d="M63.4,274.1c-4.6,0-7.5-2.1-7.5-8.6v-12.7h-3.8v-4.9h3.8v-4.5l6.8-2.2v6.7h6.9v4.9h-6.9v12.6   c0,1.8,0.9,2.9,2.7,2.9c1.4,0,2.9-0.4,3.9-0.9l1,5C68.8,273.3,66.2,274.1,63.4,274.1z"/>
	<path class="st2" d="M89.3,253.7c-0.8-0.3-2-0.4-3.2-0.4c-1.8,0-3.5,0.8-4.6,1.7v18.6h-6.8v-25.7h4.8l0.7,3.5h0.2   c0.8-1.8,3.1-3.9,6.1-3.9c1.4,0,2.4,0.2,3,0.4L89.3,253.7z"/>
	<path class="st2" d="M95.6,273.6v-20.7l-3-0.6V248h9.8v25.7h-6.8V273.6z M95.3,237.5h6.9v6.2h-6.9V237.5z"/>
	<path class="st2" d="M131.3,257.7v15.9h-6.9v-15.2c0-3.9-1.4-5.7-4.6-5.7c-1.8,0-3.1,0.8-4.3,1.6v19.4h-6.9V248h4.6l1.2,3   c1.5-1.8,4-3.5,7.6-3.5c4.2,0,6.7,1.3,8,3.6c1.5-1.8,4.2-3.6,7.8-3.6c7.3,0,9.5,3.8,9.5,10.3v15.9h-7v-15.2c0-3.9-1.6-5.7-4.8-5.7   c-1.7,0-3.2,0.8-4.3,1.6C131.2,255.3,131.3,256.5,131.3,257.7z"/>
	<path class="st2" d="M175.8,260.7c0,8.7-4.4,13.4-12,13.4c-7.7,0-12-4.6-12-13.4c0-7.5,4.2-13.3,12-13.3   C171.5,247.4,175.8,253.2,175.8,260.7z M168.7,260.7c0-6.2-1.8-8.3-5-8.3s-5,2.2-5,8.3c0,6,1.6,8.4,5,8.4   C167.1,269.1,168.7,266.9,168.7,260.7z"/>
	<path class="st2" d="M196.8,273.6v-15.2c0-3.9-1.5-5.7-4.6-5.7c-1.8,0-3.3,0.8-4.5,1.6v19.4h-6.9V248h4.7l1,2.9   c1.5-1.7,4.3-3.5,8.1-3.5c6.5,0,9.1,3.8,9.1,10.3v15.9H196.8z"/>
	<path class="st2" d="M211.5,273.6v-20.7l-3-0.6V248h9.8v25.7h-6.8V273.6z M211.3,237.5h6.9v6.2h-6.9V237.5z"/>
	<path class="st2" d="M247.6,260.7c0,8.7-4.4,13.4-12,13.4c-7.7,0-12-4.6-12-13.4c0-7.5,4.2-13.3,12-13.3   C243.3,247.4,247.6,253.2,247.6,260.7z M240.6,260.7c0-6.2-1.8-8.3-5-8.3s-5,2.2-5,8.3c0,6,1.6,8.4,5,8.4   C238.9,269.1,240.6,266.9,240.6,260.7z"/>
</g>
</svg>